# xmcd
#
# Track frame offsets:
#	150
#	21395
#	26020
#	43195
#	69595
#	86095
#	115720
#	150995
#	172725
#	194870
#
# Disc length: 2988 seconds
#
# Revision: 1
# Processed by: cddbd v1.5.1PL0 Copyright (c) Steve Scherf et al.
# Submitted via: EasyCDDAExtractor 8.0.2.1
#
DISCID=800baa0a
DTITLE=Ozzy Osbourne - Sports Palace Mexico City 25-08-95 Disc 1
DYEAR=1995
DGENRE=Hard Rock
TTITLE0=Medley Songs
TTITLE1=Intro
TTITLE2=Paranoid
TTITLE3=Desire
TTITLE4=I Don't Know
TTITLE5=Goodbye To Romance
TTITLE6=No More Tears
TTITLE7=I Just Want You
TTITLE8=I Don't Want To Change The World
TTITLE9=Suicide Solution
EXTD=
EXTT0=
EXTT1=
EXTT2=
EXTT3=
EXTT4=
EXTT5=
EXTT6=
EXTT7=
EXTT8=
EXTT9=
PLAYORDER=
